<svg width="32" height="24" viewBox="0 0 32 24" fill="none" xmlns="http://www.w3.org/2000/svg">
<g clip-path="url(#clip0)">
<path d="M15.2127 6.05402L4.20962 16.6196C4.18064 16.6472 4.16263 16.6804 4.15766 16.7153C4.15268 16.7503 4.16095 16.7856 4.18151 16.8171C4.20207 16.8487 4.23409 16.8753 4.27389 16.8938C4.31368 16.9124 4.35964 16.9221 4.40649 16.922L6.82212 16.922C6.97524 16.922 7.12212 16.8681 7.21587 16.779L16.0002 8.34152L24.7846 16.779C24.8784 16.8704 25.0252 16.922 25.1784 16.922L27.594 16.922C27.8034 16.922 27.919 16.7415 27.7909 16.6196L16.7877 6.05402C16.6943 5.96422 16.5749 5.89158 16.4384 5.84161C16.302 5.79164 16.1521 5.76567 16.0002 5.76567C15.8484 5.76567 15.6985 5.79164 15.5621 5.84161C15.4256 5.89158 15.3061 5.96422 15.2127 6.05402Z" fill="#F57C14"/>
</g>
<defs>
<clipPath id="clip0">
<rect width="24" height="32" fill="white" transform="translate(0 24) rotate(-90)"/>
</clipPath>
</defs>
</svg>
