<svg width="32" height="24" viewBox="0 0 32 24" fill="none" xmlns="http://www.w3.org/2000/svg">
<g clip-path="url(#clip0)">
<path d="M16.7873 17.946L27.7904 7.38038C27.8194 7.35277 27.8374 7.31959 27.8423 7.28465C27.8473 7.24971 27.839 7.21443 27.8185 7.18286C27.7979 7.15128 27.7659 7.1247 27.7261 7.10616C27.6863 7.08762 27.6404 7.07787 27.5935 7.07804L25.1779 7.07804C25.0248 7.07804 24.8779 7.13194 24.7841 7.221L15.9998 15.6585L7.21538 7.221C7.12163 7.1296 6.97476 7.07803 6.82163 7.07803L4.40601 7.07803C4.19663 7.07803 4.08101 7.2585 4.20913 7.38038L15.2123 17.946C15.3057 18.0358 15.4251 18.1084 15.5616 18.1584C15.698 18.2084 15.8479 18.2343 15.9998 18.2343C16.1516 18.2343 16.3015 18.2084 16.4379 18.1584C16.5744 18.1084 16.6939 18.0358 16.7873 17.946Z" fill="#728DA3"/>
</g>
<defs>
<clipPath id="clip0">
<rect width="24" height="32" fill="white" transform="translate(32) rotate(90)"/>
</clipPath>
</defs>
</svg>
