<svg width="41" height="41" viewBox="0 0 41 41" fill="none" xmlns="http://www.w3.org/2000/svg">
<path d="M24.6 20.5H27.675V26.281L32.677 29.1715L31.1395 31.8365L24.6 28.0645V20.5ZM4.1 0H32.8C33.8874 0 34.9302 0.431963 35.6991 1.20086C36.468 1.96976 36.9 3.01261 36.9 4.1V16.605C39.442 19.188 41 22.7345 41 26.65C41 30.4558 39.4881 34.1058 36.797 36.797C34.1058 39.4881 30.4559 41 26.65 41C22.7345 41 19.188 39.442 16.605 36.9H4.1C3.01261 36.9 1.96976 36.468 1.20086 35.6991C0.431963 34.9302 0 33.8874 0 32.8V4.1C0 3.01261 0.431963 1.96976 1.20086 1.20086C1.96976 0.431963 3.01261 0 4.1 0ZM4.1 25.625V32.8H13.6735C12.3 30.2375 12.3 27.8185 12.3 25.625H4.1ZM4.1 12.3H16.4V4.6125H4.1V12.3ZM32.8 12.3V4.6125H20.5V12.3H32.8ZM4.1 22.55H12.8945C13.5915 20.1925 15.1187 17.1687 17.63 15.375H4.1V22.55ZM26.65 16.7075C24.0131 16.7075 21.4842 17.755 19.6196 19.6196C17.755 21.4842 16.7075 24.0131 16.7075 26.65C16.7075 32.144 21.156 36.5925 26.65 36.5925C27.9557 36.5925 29.2485 36.3353 30.4548 35.8357C31.6611 35.336 32.7572 34.6036 33.6804 33.6804C34.6037 32.7572 35.336 31.6611 35.8357 30.4548C36.3353 29.2485 36.5925 27.9557 36.5925 26.65C36.5925 21.156 32.144 16.7075 26.65 16.7075Z" fill="#02B3E4"/>
</svg>
