<svg width="77" height="70" viewBox="0 0 77 70" fill="none" xmlns="http://www.w3.org/2000/svg">
<g clip-path="url(#clip0)">
<path d="M70.6762 5.90478C66.7397 1.96826 61.5835 0 56.4274 0C51.2713 0 46.1152 1.96826 42.1847 5.89874C42.1787 5.90478 38.2905 9.78696 38.2905 9.78696L34.4083 5.90478C30.4657 1.96826 25.3096 0 20.1535 0C14.9974 0 9.84129 1.96826 5.90478 5.90478C-1.96826 13.7778 -1.96826 27.7368 5.90478 35.6038L17.9498 47.1778V52.7143C17.9498 62.2477 25.7323 70 35.3019 70H41.2851C50.8547 70 58.6372 62.2477 58.6372 52.7143V22.7014C61.336 22.4116 63.4371 20.1294 63.4371 17.3521C63.4371 14.3755 61.0281 11.9665 58.0516 11.9665C55.0811 11.9665 52.666 14.3755 52.666 17.3521C52.666 20.1173 54.755 22.3935 57.4357 22.7014V52.7204C57.4357 61.5896 50.1906 68.8106 41.2791 68.8106H35.2958C26.3904 68.8106 19.1392 61.5956 19.1392 52.7204V48.3371L36.606 65.1216C37.0709 65.5865 37.6746 65.8159 38.2844 65.8159C38.8942 65.8159 39.498 65.5865 39.9629 65.1216L56.2342 49.4842V47.8178L39.1237 64.2703C38.9003 64.4937 38.6044 64.6144 38.2905 64.6144C37.9765 64.6144 37.6807 64.4937 37.4392 64.2522L6.75004 34.7585C4.92065 32.9291 3.50181 30.6771 2.55391 28.1835H15.1363C15.3657 28.1835 15.571 28.0507 15.6736 27.8454L18.1973 22.6772L23.8002 28.4371C23.9451 28.5881 24.1625 28.6484 24.3678 28.6001C24.573 28.5518 24.7361 28.4009 24.8025 28.1956L28.4854 16.5249L29.6446 40.7055C29.6567 40.9833 29.8559 41.2127 30.1276 41.267C30.1639 41.2731 30.2061 41.2791 30.2424 41.2791C30.4718 41.2791 30.6831 41.1463 30.7857 40.9289L36.2618 29.065L38.5924 33.4181C38.6829 33.5812 38.8399 33.6959 39.021 33.7261C39.2022 33.7563 39.3893 33.7019 39.5282 33.5751L45.4088 28.099H55.6486C55.9807 28.099 56.2463 27.8334 56.2463 27.5013C56.2463 27.1692 55.9807 26.9036 55.6486 26.9036H45.1613C45.0103 26.9036 44.8654 26.9579 44.7507 27.0666L39.2686 32.1744L36.7388 27.447C36.6301 27.2477 36.4249 27.1149 36.1954 27.133C35.966 27.139 35.7668 27.2719 35.6702 27.4832L30.7193 38.218L29.5178 13.1378C29.5058 12.848 29.2824 12.6126 28.9986 12.5703C28.7088 12.5341 28.4371 12.7092 28.3526 12.9809L23.9632 26.8855L18.469 21.2343C18.3302 21.0954 18.137 21.029 17.9438 21.0592C17.7506 21.0894 17.5875 21.2101 17.503 21.3852L14.768 26.9821H2.13731C1.52148 25.0017 1.19545 22.9006 1.19545 20.7512C1.19545 15.3778 3.21804 10.276 6.75004 6.75004C10.3303 3.16974 15.094 1.19545 20.1535 1.19545C25.213 1.19545 29.9767 3.16974 33.557 6.75004L37.4392 10.6322C37.6746 10.8677 37.9765 10.9824 38.2844 10.9824C38.5924 10.9824 38.8942 10.8677 39.1297 10.6322C39.1297 10.6322 42.8791 6.88891 43.0119 6.75004L43.0179 6.74401C46.5982 3.16371 51.3559 1.19545 56.4154 1.19545C61.4809 1.19545 66.2385 3.16974 69.8188 6.75004C73.3508 10.282 75.3734 15.3899 75.3734 20.7573C75.3734 26.1247 73.3508 31.2265 69.837 34.7404L59.8326 44.3704V46.0307L70.6822 35.6038C78.5492 27.7368 78.5492 13.7839 70.6762 5.90478ZM53.8615 17.3521C53.8615 15.0457 55.7392 13.162 58.0516 13.162C60.3579 13.162 62.2416 15.0397 62.2416 17.3521C62.2416 19.6645 60.364 21.5422 58.0516 21.5422C55.7392 21.5361 53.8615 19.6584 53.8615 17.3521Z" fill="#02B3E4"/>
<path d="M60.4424 17.3521C60.4424 16.0298 59.3738 14.9612 58.0515 14.9612C56.7293 14.9612 55.6606 16.0298 55.6606 17.3521C55.6606 18.6743 56.7293 19.743 58.0515 19.743C59.3738 19.743 60.4424 18.6743 60.4424 17.3521ZM56.8561 17.3521C56.8561 16.694 57.3934 16.1566 58.0515 16.1566C58.7096 16.1566 59.247 16.694 59.247 17.3521C59.247 18.0102 58.7096 18.5475 58.0515 18.5475C57.3934 18.5475 56.8561 18.0102 56.8561 17.3521Z" fill="#02B3E4"/>
<path d="M51.0057 12.8601C51.3358 12.8601 51.6034 12.5925 51.6034 12.2624C51.6034 11.9323 51.3358 11.6647 51.0057 11.6647C50.6756 11.6647 50.408 11.9323 50.408 12.2624C50.408 12.5925 50.6756 12.8601 51.0057 12.8601Z" fill="#02B3E4"/>
<path d="M67.1563 15.8548C67.4864 15.8548 67.754 15.5871 67.754 15.257C67.754 14.9269 67.4864 14.6593 67.1563 14.6593C66.8262 14.6593 66.5586 14.9269 66.5586 15.257C66.5586 15.5871 66.8262 15.8548 67.1563 15.8548Z" fill="#02B3E4"/>
<path d="M47.1175 18.5475C47.4476 18.5475 47.7152 18.2799 47.7152 17.9498C47.7152 17.6197 47.4476 17.3521 47.1175 17.3521C46.7874 17.3521 46.5198 17.6197 46.5198 17.9498C46.5198 18.2799 46.7874 18.5475 47.1175 18.5475Z" fill="#02B3E4"/>
<path d="M55.7935 9.87148C56.1236 9.87148 56.3912 9.60387 56.3912 9.27376C56.3912 8.94365 56.1236 8.67604 55.7935 8.67604C55.4634 8.67604 55.1958 8.94365 55.1958 9.27376C55.1958 9.60387 55.4634 9.87148 55.7935 9.87148Z" fill="#02B3E4"/>
<path d="M62.9722 25.4244C63.3024 25.4244 63.57 25.1567 63.57 24.8266C63.57 24.4965 63.3024 24.2289 62.9722 24.2289C62.6421 24.2289 62.3745 24.4965 62.3745 24.8266C62.3745 25.1567 62.6421 25.4244 62.9722 25.4244Z" fill="#02B3E4"/>
<path d="M51.6035 24.2289C51.9336 24.2289 52.2012 23.9613 52.2012 23.6312C52.2012 23.3011 51.9336 23.0335 51.6035 23.0335C51.2733 23.0335 51.0057 23.3011 51.0057 23.6312C51.0057 23.9613 51.2733 24.2289 51.6035 24.2289Z" fill="#02B3E4"/>
<path d="M60.5753 10.4692C60.9054 10.4692 61.173 10.2016 61.173 9.87148C61.173 9.54137 60.9054 9.27376 60.5753 9.27376C60.2452 9.27376 59.9775 9.54137 59.9775 9.87148C59.9775 10.2016 60.2452 10.4692 60.5753 10.4692Z" fill="#02B3E4"/>
</g>
<defs>
<clipPath id="clip0">
<rect width="76.581" height="70" fill="white"/>
</clipPath>
</defs>
</svg>
