<svg width="73" height="70" viewBox="0 0 73 70" fill="none" xmlns="http://www.w3.org/2000/svg">
<g clip-path="url(#clip0)">
<path d="M39.4348 69.6837C38.589 69.6837 37.6844 69.544 36.7283 69.3969L36.493 69.3601C29.087 67.9481 25.2259 61.9468 25.8804 52.9082C25.954 51.805 25.5789 50.7901 24.8508 50.1282C23.6005 48.9735 22.1517 48.9147 20.4234 49.9443L20.0042 50.2091C18.2833 51.3269 15.9225 52.864 13.6646 51.2755C12.157 50.1797 11.0611 50.0914 10.767 50.0914H10.3698C8.71507 49.9517 8.17819 50.3267 7.44274 50.8416C5.8174 52.0403 3.98613 52.9744 0.529523 50.5547L0.404497 50.4223C0.132381 50.0252 0 49.6428 0 49.275V42.2662C0 41.5528 0.581004 40.9718 1.29439 40.9718H30.6756C31.411 40.9718 32.0435 41.3028 32.4406 41.9132C32.8304 42.3986 32.9481 43.112 32.7422 43.8401C32.6171 44.2299 32.4701 44.5902 32.3303 44.958C32.1906 45.311 32.0582 45.6566 31.9405 46.0097C31.4625 47.2379 31.0653 48.6058 30.6829 50.3414L30.6241 50.7312C30.4917 51.5991 30.3593 52.4154 30.2931 53.2171C29.8445 60.0347 32.2274 64.0134 37.3755 65.0284C39.9349 65.5505 42.1339 65.1828 43.921 63.9178C46.7157 61.9836 47.9807 58.4902 48.2601 56.909C48.8117 53.5112 48.8853 50.6503 48.4955 47.9071L48.4881 47.5173L48.3852 46.8334C48.2528 45.8993 48.1204 44.9285 47.9365 43.943C47.8409 43.2664 48.0101 42.6339 48.4366 42.1044C48.8485 41.5896 49.4736 41.2807 50.0988 41.2807H71.4415C71.8166 41.2807 72.1475 41.4499 72.3387 41.7367C72.449 41.9059 72.5961 42.2515 72.4196 42.7516V48.2307C72.4196 48.6279 72.1843 49.025 71.8018 49.2824C71.6915 49.3559 71.5886 49.4148 71.4856 49.4663C71.3826 49.5177 71.287 49.5692 71.2429 49.6134L71.1547 49.6869C68.7571 51.2093 66.4919 52.6434 61.8292 50.3488C59.7405 49.3339 59.4242 49.7457 58.9462 50.3562L58.8506 50.4591C58.1299 51.4299 56.9017 52.0624 55.5558 52.1507C54.7762 52.2463 53.9231 52.0109 53.3568 51.7976C53.2538 51.7462 53.195 51.7535 53.1362 51.7903C53.07 51.8344 52.9964 51.9227 52.9964 52.0477C52.9082 54.0775 52.717 55.8941 52.4301 57.6224C52.1065 59.792 50.415 64.668 46.3333 67.5068C44.3034 68.9557 41.9868 69.6837 39.4348 69.6837ZM22.7107 48.2013C23.7256 48.2013 24.6669 48.5984 25.5201 49.3854C26.4762 50.2532 26.9689 51.5623 26.8733 52.967C26.2555 61.4614 29.8224 67.0729 36.6621 68.3746L36.8827 68.4114C37.8021 68.5512 38.6625 68.6909 39.4348 68.6909C41.7735 68.6909 43.8989 68.0216 45.7523 66.7125C49.5619 64.0649 51.1357 59.5272 51.4373 57.49C51.7167 55.7911 51.9006 54.0113 51.9889 52.0477C51.9889 51.6211 52.2242 51.2019 52.5993 50.9666C52.9523 50.7459 53.3789 50.7239 53.7466 50.9077C54.3644 51.1357 54.9674 51.2387 55.4528 51.1799C56.5486 51.1063 57.5121 50.6136 58.0563 49.8708L58.1887 49.731C58.88 48.8338 59.6449 48.216 62.2557 49.481C66.3963 51.5108 68.2496 50.3709 70.5736 48.9C70.7134 48.7749 70.8678 48.694 71.0076 48.6205C71.0811 48.5837 71.162 48.5396 71.2429 48.4808C71.3606 48.3999 71.4194 48.3043 71.4194 48.2601V42.5825L71.4562 42.4869C71.5003 42.3765 71.5003 42.3177 71.493 42.303H71.4341H50.1061C49.7825 42.303 49.4442 42.4721 49.2236 42.7516C48.9662 43.0679 48.8706 43.4135 48.9294 43.8033C49.1133 44.7888 49.253 45.8111 49.378 46.7157L49.481 47.4658L49.4883 47.8556C49.8928 50.6283 49.8119 53.5848 49.2456 57.0929C49.2089 57.2988 48.3263 62.1013 44.502 64.7489C42.4869 66.1757 40.0231 66.6022 37.1916 66.0212C31.5581 64.9107 28.8296 60.4612 29.3076 53.1582C29.3812 52.3051 29.5062 51.474 29.6459 50.5915L29.7121 50.1723C30.1166 48.3557 30.5285 46.9437 31.0139 45.6861C31.1242 45.3404 31.2713 44.98 31.411 44.6123C31.5507 44.2593 31.6831 43.9136 31.8008 43.5606C31.9111 43.1708 31.8596 42.781 31.6464 42.5163C31.4037 42.1559 31.0874 41.9868 30.6829 41.9868H1.29439C1.08846 41.9868 0.992856 42.1633 0.992856 42.2883V49.275C0.992856 49.4148 1.05905 49.5986 1.17672 49.7972C4.04497 51.7756 5.36877 51.121 6.8029 50.0693C7.67073 49.4589 8.4356 48.9294 10.4066 49.0985H10.7596C11.2377 49.0985 12.5394 49.2309 14.2383 50.4665C15.9372 51.6579 17.8052 50.4444 19.4526 49.378L19.8865 49.0985C20.8867 48.5028 21.8281 48.2013 22.7107 48.2013Z" fill="#02B3E4"/>
<path d="M39.5965 63.153C39.0744 63.153 38.5669 63.0647 38.0815 62.9838C32.676 61.8659 31.8449 57.4532 32.095 53.9378C32.1759 52.3639 32.551 50.746 33.2423 49.0103C39.8319 32.0508 30.352 11.37 24.1154 0.551586L24.9391 0C35.581 13.5175 43.2002 31.4698 46.3774 50.5474C46.6936 52.7022 46.6421 54.7468 46.2156 56.6295C45.6272 59.0712 43.9872 63.153 39.5965 63.153ZM28.4177 6.51607C34.1175 18.1215 39.751 35.0074 34.1616 49.378C33.507 51.0107 33.154 52.5257 33.0805 53.9966C32.7569 58.5344 34.4999 61.2261 38.258 62.0057C38.6846 62.0792 39.1479 62.1528 39.5892 62.1528C43.3032 62.1528 44.7226 58.5491 45.2374 56.4016C45.6346 54.6438 45.6861 52.7243 45.3919 50.7018C42.6854 34.4558 36.7283 19.0334 28.4177 6.51607Z" fill="#02B3E4"/>
<path d="M8.61946 61.3217C6.91322 61.3217 5.57471 59.9832 5.57471 58.2769C5.57471 56.5707 6.91322 55.2322 8.61946 55.2322C10.2963 55.2322 11.6642 56.6001 11.6642 58.2769C11.6642 59.9832 10.3257 61.3217 8.61946 61.3217ZM8.61946 56.225C7.47216 56.225 6.56756 57.1223 6.56756 58.2769C6.56756 59.4242 7.46481 60.3289 8.61946 60.3289C9.77412 60.3289 10.6714 59.4316 10.6714 58.2769C10.6714 57.1664 9.72999 56.225 8.61946 56.225Z" fill="#02B3E4"/>
<path d="M21.1221 58.7697C19.4159 58.7697 18.0774 57.4312 18.0774 55.7249C18.0774 54.0187 19.4159 52.6802 21.1221 52.6802C22.799 52.6802 24.1669 54.0481 24.1669 55.7249C24.1669 57.4312 22.8284 58.7697 21.1221 58.7697ZM21.1221 53.6804C19.9748 53.6804 19.0702 54.5776 19.0702 55.7323C19.0702 56.8796 19.9675 57.7842 21.1221 57.7842C22.2694 57.7842 23.1741 56.8869 23.1741 55.7323C23.1741 54.6144 22.2327 53.6804 21.1221 53.6804Z" fill="#02B3E4"/>
<path d="M17.4596 67.2935C15.7533 67.2935 14.4148 65.955 14.4148 64.2488C14.4148 62.5425 15.7533 61.204 17.4596 61.204C19.1364 61.204 20.5043 62.572 20.5043 64.2488C20.5043 65.955 19.1658 67.2935 17.4596 67.2935ZM17.4596 62.1969C16.3123 62.1969 15.4077 63.0941 15.4077 64.2488C15.4077 65.4034 16.3049 66.3007 17.4596 66.3007C18.6069 66.3007 19.5115 65.4034 19.5115 64.2488C19.5115 63.1383 18.5701 62.1969 17.4596 62.1969Z" fill="#02B3E4"/>
<path d="M66.5875 68.5659C64.8812 68.5659 63.5427 67.2273 63.5427 65.5211C63.5427 63.8149 64.8812 62.4763 66.5875 62.4763C68.2643 62.4763 69.6322 63.8443 69.6322 65.5211C69.6322 67.2273 68.2937 68.5659 66.5875 68.5659ZM66.5875 63.4692C65.4402 63.4692 64.5356 64.3665 64.5356 65.5211C64.5356 66.6684 65.4328 67.573 66.5875 67.573C67.7421 67.573 68.6394 66.6758 68.6394 65.5211C68.6394 64.4106 67.698 63.4692 66.5875 63.4692Z" fill="#02B3E4"/>
<path d="M54.9601 70C53.5627 70 52.4742 68.9042 52.4742 67.5142C52.4742 66.1168 53.5701 65.0284 54.9601 65.0284C56.3059 65.0284 57.4459 66.1683 57.4459 67.5142C57.4532 68.9042 56.3574 70 54.9601 70ZM54.9601 66.0212C54.1217 66.0212 53.4671 66.6758 53.4671 67.5142C53.4671 68.3526 54.1217 69.0071 54.9601 69.0071C55.7985 69.0071 56.453 68.3526 56.453 67.5142C56.453 66.7199 55.7543 66.0212 54.9601 66.0212Z" fill="#02B3E4"/>
<path d="M58.7035 59.1742C56.9972 59.1742 55.6587 57.8357 55.6587 56.1294C55.6587 54.4232 56.9972 53.0847 58.7035 53.0847C60.3803 53.0847 61.7482 54.4526 61.7482 56.1294C61.7482 57.8357 60.4097 59.1742 58.7035 59.1742ZM58.7035 54.0775C57.5562 54.0775 56.6515 54.9748 56.6515 56.1294C56.6515 57.2767 57.5488 58.1814 58.7035 58.1814C59.8508 58.1814 60.7554 57.2841 60.7554 56.1294C60.7554 55.0116 59.814 54.0775 58.7035 54.0775Z" fill="#02B3E4"/>
<path d="M69.1322 58.7697C67.4259 58.7697 66.0874 57.4312 66.0874 55.7249C66.0874 54.0187 67.4259 52.6802 69.1322 52.6802C70.8384 52.6802 72.1769 54.0187 72.1769 55.7249C72.1769 57.4312 70.8458 58.7697 69.1322 58.7697ZM69.1322 53.6804C67.9849 53.6804 67.0803 54.5776 67.0803 55.7323C67.0803 56.8796 67.9775 57.7842 69.1322 57.7842C70.2795 57.7842 71.1841 56.8869 71.1841 55.7323C71.1841 54.5776 70.2868 53.6804 69.1322 53.6804Z" fill="#02B3E4"/>
</g>
<defs>
<clipPath id="clip0">
<rect width="72.5005" height="70" fill="white"/>
</clipPath>
</defs>
</svg>
