<svg width="47" height="70" viewBox="0 0 47 70" fill="none" xmlns="http://www.w3.org/2000/svg">
<g clip-path="url(#clip0)">
<path d="M41.9796 0.094101H4.44657C2.04684 0.094101 0.0941162 2.03898 0.0941162 4.43871V49.1239C0.0941162 51.5236 2.04684 53.4764 4.44657 53.4764H16.5864V68.557C16.5864 69.302 17.1902 69.898 17.9274 69.898H28.4988C29.2359 69.898 29.8398 69.302 29.8398 68.557V53.4764H41.9796C44.3793 53.4764 46.3321 51.5236 46.3321 49.1239V4.43871C46.3321 2.03898 44.3793 0.094101 41.9796 0.094101ZM28.4988 68.9178H17.9274C17.7314 68.9178 17.5667 68.7609 17.5667 68.557V59.3502H28.8595V68.557C28.8595 68.7609 28.7027 68.9178 28.4988 68.9178ZM28.8595 58.3699H17.5667V53.4764V52.4961V47.2496H28.8595V52.4961V53.4764V58.3699ZM45.3518 49.1239C45.3518 50.9825 43.8382 52.4961 41.9796 52.4961H29.8398V47.2496H33.063C33.3296 47.2496 33.5492 47.03 33.5492 46.7634C33.5492 46.4967 33.3374 46.2693 33.0708 46.2693H13.3711C13.0966 46.2693 12.8848 46.4889 12.8848 46.7555C12.8848 47.0222 13.1044 47.2418 13.3711 47.2418H16.5942V52.4882H4.44657C2.58795 52.4882 1.0744 50.9747 1.0744 49.1161V4.43871C1.0744 2.5801 2.58795 1.07438 4.44657 1.07438H41.9796C43.8382 1.07438 45.3518 2.5801 45.3518 4.43871V49.1239Z" fill="#02B3E4"/>
<path d="M28.4988 70H17.9274C17.1353 70 16.4923 69.3569 16.4923 68.5649V53.5783H4.44656C1.99978 53.5783 0 51.5785 0 49.1317V4.44656C0 1.99193 1.99978 0 4.44656 0H41.9796C44.4342 0 46.4262 1.99193 46.4262 4.44656V49.1317C46.4262 51.5864 44.4264 53.5783 41.9796 53.5783H29.9417V68.5649C29.9417 69.3569 29.2987 70 28.4988 70ZM4.44656 0.196056C2.10173 0.196056 0.196056 2.10173 0.196056 4.44656V49.1317C0.196056 51.4766 2.10173 53.3823 4.44656 53.3823H16.6805V68.5649C16.6805 69.2471 17.2373 69.8039 17.9196 69.8039H28.4909C29.1732 69.8039 29.73 69.2471 29.73 68.5649V53.3823H41.9718C44.3166 53.3823 46.2223 51.4766 46.2223 49.1317V4.44656C46.2223 2.10173 44.3166 0.196056 41.9718 0.196056H4.44656ZM28.4988 69.0197H17.9274C17.6765 69.0197 17.4726 68.8158 17.4726 68.5649V59.2561H28.9615V68.5649C28.9615 68.8158 28.7576 69.0197 28.4988 69.0197ZM17.6686 59.4522V68.5649C17.6686 68.706 17.7862 68.8237 17.9274 68.8237H28.4988C28.6478 68.8237 28.7576 68.7139 28.7576 68.5649V59.4522H17.6686ZM28.9615 58.4719H17.4726V47.1555H28.9615V58.4719ZM17.6686 58.2758H28.7654V47.3516H17.6686V58.2758ZM41.9874 52.598H29.7457V47.1555H33.0708C33.2904 47.1555 33.4629 46.983 33.4629 46.7634C33.4629 46.5438 33.2904 46.3713 33.0708 46.3713H13.371C13.1515 46.3713 12.9789 46.5438 12.9789 46.7634C12.9789 46.983 13.1515 47.1555 13.371 47.1555H16.6883V52.598H4.44656C2.53305 52.598 0.980282 51.0453 0.980282 49.1317V4.44656C0.980282 2.54089 2.53305 0.980282 4.44656 0.980282H41.9796C43.8931 0.980282 45.4459 2.53305 45.4459 4.44656V49.1317C45.4537 51.0374 43.8931 52.598 41.9874 52.598ZM29.9417 52.402H41.9874C43.7912 52.402 45.2577 50.9355 45.2577 49.1317V4.44656C45.2577 2.64284 43.7912 1.17634 41.9874 1.17634H4.44656C2.64284 1.17634 1.17634 2.64284 1.17634 4.44656V49.1317C1.17634 50.9355 2.64284 52.402 4.44656 52.402H16.4844V47.3516H13.3632C13.0417 47.3516 12.775 47.0849 12.775 46.7634C12.775 46.4419 13.0417 46.1752 13.3632 46.1752H33.063C33.3845 46.1752 33.6511 46.4419 33.6511 46.7634C33.6511 47.0849 33.3845 47.3516 33.063 47.3516H29.9339V52.402H29.9417Z" fill="#02B3E4"/>
<path d="M37.0625 7.84225H9.37146C8.69703 7.84225 8.14807 8.39121 8.14807 9.06565V34.5373C8.14807 35.2117 8.69703 35.7607 9.37146 35.7607H37.0625C37.7369 35.7607 38.2859 35.2117 38.2859 34.5373V9.06565C38.2859 8.39121 37.7369 7.84225 37.0625 7.84225ZM37.3056 34.5373C37.3056 34.6706 37.1958 34.7804 37.0625 34.7804H9.37146C9.23814 34.7804 9.12835 34.6706 9.12835 34.5373V9.06565C9.12835 8.93233 9.23814 8.82254 9.37146 8.82254H37.0625C37.1958 8.82254 37.3056 8.93233 37.3056 9.06565V34.5373Z" fill="#02B3E4"/>
<path d="M37.0703 35.8626H9.3793C8.64997 35.8626 8.05396 35.2666 8.05396 34.5373V9.06565C8.05396 8.33632 8.64997 7.74031 9.3793 7.74031H37.0703C37.7996 7.74031 38.3878 8.33632 38.3878 9.06565V34.5373C38.3878 35.2666 37.7918 35.8626 37.0703 35.8626ZM9.3793 7.94421C8.75976 7.94421 8.25001 8.44611 8.25001 9.07349V34.5451C8.25001 35.1647 8.75192 35.6744 9.3793 35.6744H37.0703C37.6898 35.6744 38.1918 35.1725 38.1918 34.5451V9.06565C38.1918 8.44611 37.6898 7.93637 37.0703 7.93637H9.3793V7.94421ZM37.0703 34.8824H9.3793C9.19108 34.8824 9.03424 34.7255 9.03424 34.5373V9.06565C9.03424 8.87744 9.19108 8.72059 9.3793 8.72059H37.0703C37.2585 8.72059 37.4075 8.87744 37.4075 9.06565V34.5373C37.4075 34.7255 37.2507 34.8824 37.0703 34.8824ZM9.3793 8.92449C9.30087 8.92449 9.23029 8.98723 9.23029 9.07349V34.5451C9.23029 34.6236 9.29303 34.6942 9.3793 34.6942H37.0703C37.1487 34.6942 37.2115 34.6314 37.2115 34.5451V9.06565C37.2115 8.98723 37.1487 8.91665 37.0703 8.91665H9.3793V8.92449Z" fill="#02B3E4"/>
<path d="M23.7385 12.4692C23.4405 12.1947 22.9856 12.1947 22.6876 12.4692C21.5584 13.5357 15.9276 19.0645 15.9276 23.3699C15.9276 27.4636 19.2684 30.922 23.2131 30.922C27.1656 30.922 30.4985 27.4636 30.4985 23.3699C30.4985 19.0645 24.8678 13.5357 23.7385 12.4692ZM23.2131 29.9417C19.7938 29.9417 16.9079 26.9303 16.9079 23.3699C16.9079 19.6213 21.8642 14.618 23.2131 13.324C26.1539 16.1394 29.5182 20.3899 29.5182 23.3699C29.5182 26.9303 26.6323 29.9417 23.2131 29.9417Z" fill="#02B3E4"/>
<path d="M23.2131 31.024C19.2135 31.024 15.8257 27.5185 15.8257 23.3778C15.8257 19.041 21.48 13.4808 22.6171 12.4065C22.9543 12.0928 23.464 12.0928 23.8013 12.4065C24.9384 13.4808 30.5927 19.041 30.5927 23.3778C30.6005 27.5185 27.2205 31.024 23.2131 31.024ZM23.2131 12.3672C23.0484 12.3672 22.8837 12.43 22.7504 12.5476C21.629 13.6063 16.0217 19.1194 16.0217 23.3778C16.0217 27.4165 19.3155 30.8279 23.2131 30.8279C27.1107 30.8279 30.4044 27.4165 30.4044 23.3778C30.4044 19.1194 24.7972 13.6142 23.6758 12.5476C23.5425 12.4221 23.3778 12.3672 23.2131 12.3672ZM23.2131 30.0437C19.739 30.0437 16.806 26.9931 16.806 23.3778C16.806 19.6292 21.6525 14.6886 23.1425 13.2613L23.2131 13.1985L23.2837 13.2613C26.35 16.1943 29.6202 20.3899 29.6202 23.3778C29.6202 26.9931 26.6872 30.0437 23.2131 30.0437ZM23.2131 13.4652C21.6682 14.9552 17.002 19.7625 17.002 23.3778C17.002 26.8833 19.8409 29.8476 23.2131 29.8476C26.5853 29.8476 29.4242 26.8833 29.4242 23.3778C29.4242 20.4683 26.099 16.2335 23.2131 13.4652Z" fill="#02B3E4"/>
<path d="M15.8648 40.2386H9.41066C9.13618 40.2386 8.92444 40.4582 8.92444 40.7248C8.92444 40.9915 9.14402 41.2111 9.41066 41.2111H15.8648C16.1393 41.2111 16.3511 40.9915 16.3511 40.7248C16.3511 40.4582 16.1393 40.2386 15.8648 40.2386Z" fill="#02B3E4"/>
<path d="M15.8649 41.3209H9.41068C9.08915 41.3209 8.82251 41.0542 8.82251 40.7327C8.82251 40.4112 9.08915 40.1445 9.41068 40.1445H15.8649C16.1864 40.1445 16.453 40.4112 16.453 40.7327C16.453 41.0542 16.1864 41.3209 15.8649 41.3209ZM9.41068 40.3406C9.1911 40.3406 9.01857 40.5131 9.01857 40.7327C9.01857 40.9523 9.1911 41.1248 9.41068 41.1248H15.8649C16.0844 41.1248 16.257 40.9523 16.257 40.7327C16.257 40.5131 16.0844 40.3406 15.8649 40.3406H9.41068Z" fill="#02B3E4"/>
<path d="M26.4441 40.2386H19.9899C19.7154 40.2386 19.5037 40.4582 19.5037 40.7248C19.5037 40.9915 19.7232 41.2111 19.9899 41.2111H26.4441C26.7107 41.2111 26.9303 40.9915 26.9303 40.7248C26.9303 40.4582 26.7185 40.2386 26.4441 40.2386Z" fill="#02B3E4"/>
<path d="M26.4441 41.3209H19.9899C19.6684 41.3209 19.4017 41.0542 19.4017 40.7327C19.4017 40.4112 19.6684 40.1445 19.9899 40.1445H26.4441C26.7656 40.1445 27.0322 40.4112 27.0322 40.7327C27.0322 41.0542 26.7735 41.3209 26.4441 41.3209ZM19.9899 40.3406C19.7703 40.3406 19.5978 40.5131 19.5978 40.7327C19.5978 40.9523 19.7703 41.1248 19.9899 41.1248H26.4441C26.6637 41.1248 26.8362 40.9523 26.8362 40.7327C26.8362 40.5131 26.6637 40.3406 26.4441 40.3406H19.9899Z" fill="#02B3E4"/>
<path d="M37.0311 40.2386H30.5769C30.3103 40.2386 30.0907 40.4582 30.0907 40.7248C30.0907 40.9915 30.3103 41.2111 30.5769 41.2111H37.0311C37.2977 41.2111 37.5173 40.9915 37.5173 40.7248C37.5173 40.4582 37.2977 40.2386 37.0311 40.2386Z" fill="#02B3E4"/>
<path d="M37.0311 41.3209H30.5769C30.2554 41.3209 29.9888 41.0542 29.9888 40.7327C29.9888 40.4112 30.2554 40.1445 30.5769 40.1445H37.0311C37.3526 40.1445 37.6193 40.4112 37.6193 40.7327C37.6193 41.0542 37.3526 41.3209 37.0311 41.3209ZM30.5691 40.3406C30.3495 40.3406 30.177 40.5131 30.177 40.7327C30.177 40.9523 30.3495 41.1248 30.5691 41.1248H37.0233C37.2429 41.1248 37.4154 40.9523 37.4154 40.7327C37.4154 40.5131 37.2429 40.3406 37.0233 40.3406H30.5691Z" fill="#02B3E4"/>
<path d="M23.2131 62.0244C21.9269 62.0244 20.8839 63.0753 20.8839 64.3614C20.8839 65.6397 21.9269 66.6906 23.2131 66.6906C24.4992 66.6906 25.5422 65.6397 25.5422 64.3614C25.5422 63.0753 24.4992 62.0244 23.2131 62.0244ZM23.2131 65.9063C22.3661 65.9063 21.6681 65.2084 21.6681 64.3614C21.6681 63.5066 22.3661 62.8086 23.2131 62.8086C24.0679 62.8086 24.758 63.5066 24.758 64.3614C24.758 65.2084 24.0679 65.9063 23.2131 65.9063Z" fill="#02B3E4"/>
<path d="M23.2131 66.7925C21.8721 66.7925 20.782 65.7024 20.782 64.3693C20.782 63.0282 21.8721 61.9303 23.2131 61.9303C24.5541 61.9303 25.6363 63.0204 25.6363 64.3693C25.6442 65.7024 24.5541 66.7925 23.2131 66.7925ZM23.2131 62.1264C21.9818 62.1264 20.978 63.1302 20.978 64.3693C20.978 65.6005 21.9818 66.5965 23.2131 66.5965C24.4443 66.5965 25.4403 65.5926 25.4403 64.3693C25.4481 63.1302 24.4443 62.1264 23.2131 62.1264ZM23.2131 66.0083C22.3034 66.0083 21.5662 65.2711 21.5662 64.3693C21.5662 63.4596 22.3034 62.7145 23.2131 62.7145C24.1228 62.7145 24.8521 63.4517 24.8521 64.3693C24.86 65.2711 24.1228 66.0083 23.2131 66.0083ZM23.2131 62.9106C22.4132 62.9106 21.7623 63.5615 21.7623 64.3693C21.7623 65.1692 22.4132 65.8122 23.2131 65.8122C24.013 65.8122 24.6561 65.1613 24.6561 64.3693C24.6639 63.5615 24.013 62.9106 23.2131 62.9106Z" fill="#02B3E4"/>
</g>
<defs>
<clipPath id="clip0">
<rect width="46.434" height="70" fill="white"/>
</clipPath>
</defs>
</svg>
