<svg width="61" height="70" viewBox="0 0 61 70" fill="none" xmlns="http://www.w3.org/2000/svg">
<g clip-path="url(#clip0)">
<path d="M17.3336 66.0999C17.2021 66.0999 17.0705 66.0845 16.939 66.0535L9.24718 64.235C8.52753 64.0648 8.00133 63.4535 7.94716 62.7183L6.87928 49.4086C6.8019 48.4336 6.49237 47.4895 5.98165 46.677C4.21733 43.8757 0.116073 36.4935 0 28.3529C0 5.97391 17.7902 0 28.3064 0C35.6887 0 43.9531 4.0084 48.8746 9.97457C51.8229 13.5496 55.0111 19.5003 53.4479 27.5558C53.3086 28.2832 53.4944 29.0338 53.9509 29.6219L59.7546 37.0197C60.0873 37.4453 60.2034 37.987 60.0796 38.5132C59.9558 39.0394 59.5998 39.465 59.1123 39.6971L56.3188 40.9971C55.9474 41.1751 55.6998 41.5543 55.6998 41.9644C55.6998 42.5912 55.3748 43.1561 54.8408 43.4811C54.3069 43.7984 53.6569 43.8061 53.1152 43.512C49.6794 41.6317 42.537 38.9155 33.2589 41.8329C29.1499 43.1251 19.539 47.9228 19.0283 64.4749C19.0128 64.9779 18.7729 65.4422 18.3706 65.7517C18.0688 65.9761 17.7051 66.0999 17.3336 66.0999ZM9.10016 62.6332C9.11563 62.8654 9.28587 63.0588 9.51028 63.113L17.2021 64.9315C17.3646 64.9702 17.5271 64.9315 17.6586 64.8309C17.7283 64.7767 17.8521 64.6529 17.8598 64.4439C18.3938 47.1413 28.5541 42.096 32.9029 40.7263C42.5912 37.6774 50.0663 40.5251 53.6646 42.4906C53.9277 42.6376 54.1599 42.5293 54.245 42.4829C54.3301 42.4287 54.539 42.2739 54.539 41.9644C54.539 41.0977 55.042 40.3084 55.8313 39.9447L58.6248 38.6447C58.7873 38.5673 58.9111 38.4203 58.9498 38.2423C58.9962 38.0643 58.9498 37.8786 58.8415 37.7393L53.0378 30.3416C52.3723 29.4904 52.1015 28.3916 52.3104 27.3392C53.7807 19.7247 50.7705 14.099 47.9847 10.7174C43.2644 4.99889 35.356 1.16073 28.3064 1.16073C18.2235 1.16073 1.16073 6.88702 1.16073 28.3451C1.27681 36.1839 5.25426 43.3418 6.95667 46.0502C7.56799 47.0175 7.93942 48.1472 8.03228 49.308L9.10016 62.6332Z" fill="#02B3E4"/>
<path d="M24.6229 39.1013C21.605 39.1013 19.299 38.4667 17.7204 37.1977C15.5228 35.4256 15.6543 33.1041 15.6543 33.0035C15.6776 32.6863 15.9639 32.4464 16.2734 32.4619C16.5907 32.4851 16.8305 32.7559 16.8151 33.0732C16.8073 33.1583 16.7377 34.9304 18.4711 36.3078C20.4366 37.8709 24.9789 39.1013 35.4642 36.0756L38.1261 35.2244C38.4357 35.1238 38.7607 35.294 38.8535 35.6036C38.9541 35.9054 38.7839 36.2381 38.4744 36.331L35.7969 37.1899C31.3784 38.459 27.6408 39.1013 24.6229 39.1013Z" fill="#02B3E4"/>
<path d="M22.8742 50.0508L21.9224 49.3931C22.4021 48.6967 33.847 32.3613 47.8532 33.1892C51.9699 33.4291 55.4985 35.7506 57.0694 39.2483C57.17 39.465 57.2628 39.6894 57.348 39.9215L56.2569 40.3239C56.1795 40.115 56.0944 39.9138 56.0093 39.7203C54.6164 36.6173 51.4592 34.5589 47.7835 34.3422C34.4273 33.5684 22.9902 49.8883 22.8742 50.0508Z" fill="#02B3E4"/>
<path d="M40.3627 70C40.2466 70 40.1305 69.9845 40.0145 69.9613L28.2678 67.4773C27.5482 67.3226 27.022 66.7345 26.9523 66.0148C26.6273 62.6332 26.2095 51.2967 34.4816 47.4818C42.0961 43.9763 49.9271 47.5204 52.9373 49.2074C53.804 49.6949 54.2915 50.6854 54.1367 51.6681L53.301 56.9843C53.154 57.8974 52.4962 58.6558 51.6141 58.9111C50.3218 59.2903 47.7063 59.7004 42.6068 59.4837C42.4133 59.476 42.2663 59.5379 42.1425 59.6617C42.0187 59.7778 41.9568 59.9326 41.9568 60.1028L42.0264 68.3208C42.0264 68.8315 41.8097 69.3036 41.4151 69.6286C41.1133 69.8684 40.7419 70 40.3627 70ZM28.5 66.3475L40.2466 68.8315C40.4555 68.8702 40.6026 68.7851 40.6722 68.7309C40.7419 68.6768 40.8579 68.5452 40.8579 68.3363L40.7883 60.1183C40.7883 59.6308 40.974 59.1742 41.33 58.8337C41.6782 58.4932 42.158 58.2998 42.6455 58.3307C47.5825 58.5319 50.0664 58.1528 51.2813 57.7968C51.7301 57.6653 52.0706 57.2784 52.148 56.8063L52.9837 51.4902C53.0611 50.9794 52.8135 50.4764 52.3647 50.2211C49.5093 48.6193 42.0883 45.2531 34.9614 48.5342C27.3857 52.0241 27.7958 62.7106 28.1053 65.8987C28.1208 66.1231 28.2833 66.3011 28.5 66.3475Z" fill="#02B3E4"/>
<path d="M19.5158 41.9489C15.8865 41.9489 12.5668 40.0763 10.6245 36.95C8.99177 34.3113 8.66676 31.2779 9.78881 29.0338C10.6555 26.9755 12.6906 25.629 14.9579 25.629C18.061 25.629 20.5836 28.1517 20.5836 31.2547C20.5836 33.3982 19.3919 35.325 17.4729 36.2923C17.1866 36.4393 16.8383 36.3232 16.6913 36.0369C16.5443 35.7506 16.6604 35.4024 16.9467 35.2554C18.4711 34.4893 19.4152 32.9571 19.4152 31.2547C19.4152 28.7939 17.411 26.7897 14.9502 26.7897C13.1472 26.7897 11.5299 27.8576 10.8335 29.5213C9.88167 31.4404 10.1835 34.0327 11.6073 36.3387C13.3329 39.1245 16.2889 40.7882 19.508 40.7882C19.8253 40.7882 20.0884 41.0513 20.0884 41.3686C20.0884 41.6858 19.833 41.9489 19.5158 41.9489Z" fill="#02B3E4"/>
</g>
<defs>
<clipPath id="clip0">
<rect width="60.126" height="70" fill="white"/>
</clipPath>
</defs>
</svg>
