<svg width="32" height="15" viewBox="0 0 32 15" fill="none" xmlns="http://www.w3.org/2000/svg">
<g clip-path="url(#clip0)">
<path d="M32 12C30 13.1 27.7 13.7 25.3 14H25.2C24.8 14 24.4 14.1 24.1 14.1C24 14.1 24 14.1 23.9 14.1C22.8 14.2 21.6 14.1 20.5 14C18.9 13.9 17.4 13.7 15.9 13.5C13.3 13.2 10.6 13.1 7.9 13.2C7.1 13.2 6.4 13.2 5.6 13.3C3.8 13.4 1.9 13.6 0 14C1.5 13.3 3 12.8 4.7 12.5L4 12L7.2 9.6L5.6 6L9.5 5.6L10 1.6L13.6 3.2L16 0L18.4 3.2L22 1.6L22.4 5.5L26.4 6L24.8 9.6L28 12L27.8 12.2C28.4 12.2 29.1 12.1 29.7 12C28.9 12.3 28.1 12.5 27.2 12.6C26.2 12.7 25.2 12.8 24.3 12.8C24.2 12.8 24.1 12.8 24 12.8C23.2 12.8 22.4 12.7 21.6 12.6C20.7 12.5 19.8 12.3 18.9 12.1C20.6 12.2 22.3 12.3 24 12.4C24 12.3 24 12.2 24 12.1C24 11.9 24 11.8 24 11.6C24 11.5 24 11.4 24 11.3V11.2C24 11.2 24 11.2 24 11.1C23.7 9.4 22.9 7.7 21.7 6.5C20.1 4.9 18.1 4.1 16 4C13.9 4.1 11.9 4.9 10.4 6.4C8.9 7.9 8.1 9.9 8 12C10.5 11.7 13.1 11.7 15.7 12C15.8 12 16 12 16.1 12C18.8 12.3 21.4 12.8 24 12.9H24.1C25 12.9 25.9 12.9 26.9 12.8C28.6 12.7 30.3 12.4 32 12Z" fill="#728DA3"/>
<path d="M15.4001 14C13.2001 14 11.1001 13.9 9.0001 13.8C8.2001 13.8 7.3001 13.8 6.5001 13.8C5.2001 13.8 3.9001 13.9 2.6001 13.9C3.7001 13.6 4.8001 13.5 5.9001 13.4C6.9001 13.3 7.9001 13.3 8.9001 13.3C11.2001 13.4 13.3001 13.6 15.4001 14Z" fill="#728DA3"/>
</g>
<defs>
<clipPath id="clip0">
<rect width="32" height="14.1" fill="white"/>
</clipPath>
</defs>
</svg>
