<svg width="50" height="50" viewBox="0 0 50 50" fill="none" xmlns="http://www.w3.org/2000/svg">
<path d="M48.7519 21.2244L48.5047 20.1755H25.7066V29.8245H39.3281C37.9139 36.5402 31.3514 40.0752 25.9909 40.0752C22.0906 40.0752 17.9792 38.4345 15.258 35.7975C13.8222 34.384 12.6794 32.7011 11.8949 30.8453C11.1104 28.9896 10.6996 26.9973 10.6861 24.9825C10.6861 20.9181 12.5127 16.8527 15.1705 14.1784C17.8283 11.5042 21.8423 10.008 25.8334 10.008C30.4042 10.008 33.68 12.435 34.905 13.5419L41.7617 6.72125C39.7503 4.95375 34.2247 0.5 25.6125 0.5C18.968 0.5 12.5969 3.04516 7.93969 7.68703C3.34375 12.2578 0.964844 18.8673 0.964844 25C0.964844 31.1327 3.21578 37.4119 7.66953 42.0187C12.4284 46.9319 19.1681 49.5 26.108 49.5C32.4222 49.5 38.4072 47.0259 42.6728 42.5372C46.8662 38.1184 49.0352 32.0044 49.0352 25.595C49.0352 22.8967 48.7639 21.2944 48.7519 21.2244Z" fill="#02B3E4"/>
</svg>
