<svg width="50" height="50" viewBox="0 0 50 50" fill="none" xmlns="http://www.w3.org/2000/svg">
<path d="M45.5811 0.5H4.68687C2.45234 0.5 0.5 2.10781 0.5 4.31609V45.3011C0.5 47.5214 2.45234 49.5 4.68687 49.5H45.5691C47.8156 49.5 49.5 47.5083 49.5 45.3011V4.31609C49.5131 2.10781 47.8156 0.5 45.5811 0.5ZM15.6889 41.3439H8.66922V19.5181H15.6889V41.3439ZM12.4219 16.1997H12.3716C10.125 16.1997 8.67031 14.5273 8.67031 12.4339C8.67031 10.3022 10.1633 8.66922 12.4602 8.66922C14.757 8.66922 16.1625 10.2902 16.2128 12.4339C16.2117 14.5273 14.757 16.1997 12.4219 16.1997ZM41.3439 41.3439H34.3242V29.41C34.3242 26.5509 33.3027 24.5975 30.763 24.5975C28.8227 24.5975 27.6742 25.91 27.1634 27.1886C26.972 27.648 26.9206 28.2736 26.9206 28.9123V41.3439H19.9009V19.5181H26.9206V22.5555C27.9422 21.1008 29.538 19.0073 33.2513 19.0073C37.8592 19.0073 41.345 22.0447 41.345 28.593L41.3439 41.3439Z" fill="#02B3E4"/>
</svg>
