<svg width="129" height="129" viewBox="0 0 129 129" fill="none" xmlns="http://www.w3.org/2000/svg">
<rect x="1" y="1" width="127" height="127" rx="3" stroke="#02B3E4" stroke-width="2"/>
<g clip-path="url(#clip0)">
<path d="M65.0006 42.9693L30.8553 73.0803C30.6021 73.3084 30.2787 73.4146 30.0006 73.6037V102.501C30.0006 103.164 30.264 103.8 30.7328 104.268C31.2017 104.737 31.8375 105.001 32.5006 105.001H97.5006C98.1636 105.001 98.7995 104.737 99.2683 104.268C99.7372 103.8 100.001 103.164 100.001 102.501V73.61C99.735 73.4287 99.4193 73.3256 99.1787 73.11L65.0006 42.9693ZM80.0006 83.7506C80.0006 84.0821 79.8689 84.4 79.6345 84.6345C79.4 84.8689 79.0821 85.0006 78.7506 85.0006H70.0006V93.7506C70.0006 94.0821 69.8689 94.4 69.6345 94.6345C69.4 94.8689 69.0821 95.0006 68.7506 95.0006H61.2506C60.9191 95.0006 60.6011 94.8689 60.3667 94.6345C60.1323 94.4 60.0006 94.0821 60.0006 93.7506V85.0006H51.2506C50.9191 85.0006 50.6011 84.8689 50.3667 84.6345C50.1323 84.4 50.0006 84.0821 50.0006 83.7506V76.2506C50.0006 75.9191 50.1323 75.6011 50.3667 75.3667C50.6011 75.1323 50.9191 75.0006 51.2506 75.0006H60.0006V66.2506C60.0006 65.9191 60.1323 65.6011 60.3667 65.3667C60.6011 65.1323 60.9191 65.0006 61.2506 65.0006H68.7506C69.0821 65.0006 69.4 65.1323 69.6345 65.3667C69.8689 65.6011 70.0006 65.9191 70.0006 66.2506V75.0006H78.7506C79.0821 75.0006 79.4 75.1323 79.6345 75.3667C79.8689 75.6011 80.0006 75.9191 80.0006 76.2506V83.7506ZM109.171 61.9193L69.1803 26.6068C68.0356 25.572 66.5475 24.999 65.0045 24.999C63.4614 24.999 61.9733 25.572 60.8287 26.6068L20.8287 61.9193C20.5844 62.1387 20.3856 62.4041 20.2439 62.7004C20.1021 62.9966 20.0202 63.3179 20.0026 63.6458C19.985 63.9737 20.0323 64.3019 20.1416 64.6116C20.2509 64.9212 20.4201 65.2063 20.6396 65.4506L23.985 69.1725C24.2044 69.4168 24.4698 69.6155 24.766 69.7573C25.0622 69.899 25.3835 69.981 25.7114 69.9986C26.0393 70.0161 26.3675 69.9689 26.6772 69.8596C26.9869 69.7503 27.272 69.581 27.5162 69.3615L63.3475 37.7553C63.8042 37.3523 64.3923 37.13 65.0014 37.13C65.6104 37.13 66.1985 37.3523 66.6553 37.7553L102.487 69.36C102.731 69.5795 103.016 69.7487 103.326 69.858C103.635 69.9673 103.963 70.0145 104.291 69.997C104.619 69.9794 104.94 69.8974 105.237 69.7557C105.533 69.614 105.798 69.4152 106.018 69.1709L109.362 65.449C109.804 64.9556 110.033 64.3066 109.997 63.6447C109.961 62.9828 109.664 62.3622 109.171 61.9193Z" fill="#02B3E4"/>
</g>
<defs>
<clipPath id="clip0">
<rect width="90" height="80" fill="white" transform="translate(20 25)"/>
</clipPath>
</defs>
</svg>
