<svg width="22" height="42" viewBox="0 0 22 42" fill="none" xmlns="http://www.w3.org/2000/svg">
<path d="M0.563721 0.147064V4.31373H2.64706V33.4804C2.64706 35.6906 3.52503 37.8102 5.08784 39.373C6.65064 40.9358 8.77026 41.8138 10.9804 41.8138C13.1905 41.8138 15.3102 40.9358 16.873 39.373C18.4358 37.8102 19.3137 35.6906 19.3137 33.4804V4.31373H21.3971V0.147064H0.563721ZM8.89706 29.3138C7.64706 29.3138 6.81373 28.4804 6.81373 27.2304C6.81373 25.9804 7.64706 25.1471 8.89706 25.1471C10.1471 25.1471 10.9804 25.9804 10.9804 27.2304C10.9804 28.4804 10.1471 29.3138 8.89706 29.3138ZM13.0637 20.9804C11.8137 20.9804 10.9804 20.1471 10.9804 18.8971C10.9804 17.6471 11.8137 16.8137 13.0637 16.8137C14.3137 16.8137 15.1471 17.6471 15.1471 18.8971C15.1471 20.1471 14.3137 20.9804 13.0637 20.9804ZM15.1471 10.5637H6.81373V4.31373H15.1471V10.5637Z" fill="#F57C14"/>
</svg>
