<svg width="32" height="32" viewBox="0 0 32 32" fill="none" xmlns="http://www.w3.org/2000/svg">
<path d="M16.0001 2.66675C10.8401 2.66675 6.66675 6.84008 6.66675 12.0001C6.66675 19.0001 16.0001 29.3334 16.0001 29.3334C16.0001 29.3334 25.3334 19.0001 25.3334 12.0001C25.3334 6.84008 21.1601 2.66675 16.0001 2.66675ZM9.33342 12.0001C9.33342 8.32008 12.3201 5.33341 16.0001 5.33341C19.6801 5.33341 22.6668 8.32008 22.6668 12.0001C22.6668 15.8401 18.8268 21.5867 16.0001 25.1734C13.2268 21.6134 9.33342 15.8001 9.33342 12.0001Z" fill="#02B3E4"/>
<path d="M16.0001 15.3334C17.841 15.3334 19.3334 13.841 19.3334 12.0001C19.3334 10.1591 17.841 8.66675 16.0001 8.66675C14.1591 8.66675 12.6667 10.1591 12.6667 12.0001C12.6667 13.841 14.1591 15.3334 16.0001 15.3334Z" fill="#02B3E4"/>
</svg>
