<svg width="32" height="32" viewBox="0 0 32 32" fill="none" xmlns="http://www.w3.org/2000/svg">
<path d="M24.2268 6.54659L22.8002 5.11992L15.4002 12.5199V13.9599H16.8402L24.2268 6.54659ZM21.3335 3.65325L23.0535 1.93325C23.2383 1.7462 23.4584 1.59769 23.701 1.49633C23.9436 1.39497 24.2039 1.34277 24.4668 1.34277C24.7298 1.34277 24.9901 1.39497 25.2327 1.49633C25.4753 1.59769 25.6954 1.7462 25.8802 1.93325L27.4135 3.46659C28.2002 4.25325 28.2002 5.51992 27.4135 6.29325L26.5068 7.19992L26.4802 7.22659L25.7068 7.99992L17.7068 15.9999H13.3335V11.6533L21.3335 3.65325ZM18.2935 2.91992L17.5602 3.65325L15.8668 5.34659C11.4668 5.41326 8.00016 8.81325 8.00016 13.6133C8.00016 16.7333 10.6002 20.8666 16.0002 25.7999C21.4002 20.8666 24.0002 16.7466 24.0002 13.6133V13.4799L26.4002 11.0799C26.5735 11.8799 26.6668 12.7333 26.6668 13.6133C26.6668 18.0399 23.1068 23.2799 16.0002 29.3466C8.8935 23.2799 5.3335 18.0399 5.3335 13.6133C5.3335 6.97325 10.4002 2.67992 16.0002 2.67992C16.7735 2.67992 17.5468 2.75992 18.2935 2.91992Z" fill="#F57C14"/>
</svg>
