<svg width="172" height="35" viewBox="0 0 172 35" fill="none" xmlns="http://www.w3.org/2000/svg">
<path d="M25.64 10.576C24.872 9.16796 23.816 8.09597 22.472 7.35997C21.128 6.62397 19.56 6.25597 17.768 6.25597C15.784 6.25597 14.024 6.70396 12.488 7.59996C10.952 8.49596 9.75199 9.77596 8.88799 11.44C8.02399 13.104 7.59199 15.024 7.59199 17.2C7.59199 19.44 8.02399 21.392 8.88799 23.056C9.78399 24.72 11.016 26 12.584 26.896C14.152 27.792 15.976 28.24 18.056 28.24C20.616 28.24 22.712 27.568 24.344 26.224C25.976 24.848 27.048 22.944 27.56 20.512H16.04V15.376H34.184V21.232C33.736 23.568 32.776 25.728 31.304 27.712C29.832 29.696 27.928 31.296 25.592 32.512C23.288 33.696 20.696 34.288 17.816 34.288C14.584 34.288 11.656 33.568 9.03199 32.128C6.43999 30.656 4.39199 28.624 2.88799 26.032C1.41599 23.44 0.679993 20.496 0.679993 17.2C0.679993 13.904 1.41599 10.96 2.88799 8.36796C4.39199 5.74396 6.43999 3.71196 9.03199 2.27197C11.656 0.799965 14.568 0.0639648 17.768 0.0639648C21.544 0.0639648 24.824 0.991964 27.608 2.84796C30.392 4.67196 32.312 7.24796 33.368 10.576H25.64Z" fill="#273946"/>
<path d="M48.9612 17.2C48.9612 13.904 49.6972 10.96 51.1692 8.36796C52.6732 5.74396 54.7052 3.71196 57.2652 2.27197C59.8572 0.799965 62.7532 0.0639648 65.9532 0.0639648C69.6972 0.0639648 72.9772 1.02397 75.7932 2.94397C78.6092 4.86397 80.5772 7.51997 81.6972 10.912H73.9692C73.2012 9.31196 72.1132 8.11196 70.7052 7.31196C69.3292 6.51196 67.7292 6.11197 65.9052 6.11197C63.9532 6.11197 62.2092 6.57596 60.6732 7.50396C59.1692 8.39996 57.9852 9.67996 57.1212 11.344C56.2892 13.008 55.8732 14.96 55.8732 17.2C55.8732 19.408 56.2892 21.36 57.1212 23.056C57.9852 24.72 59.1692 26.016 60.6732 26.944C62.2092 27.84 63.9532 28.288 65.9052 28.288C67.7292 28.288 69.3292 27.888 70.7052 27.088C72.1132 26.256 73.2012 25.04 73.9692 23.44H81.6972C80.5772 26.864 78.6092 29.536 75.7932 31.456C73.0092 33.344 69.7292 34.288 65.9532 34.288C62.7532 34.288 59.8572 33.568 57.2652 32.128C54.7052 30.656 52.6732 28.624 51.1692 26.032C49.6972 23.44 48.9612 20.496 48.9612 17.2Z" fill="#273946"/>
<path d="M107.981 27.616H94.637L92.429 34H85.373L97.421 0.447964H105.245L117.293 34H110.189L107.981 27.616ZM106.157 22.24L101.309 8.22396L96.461 22.24H106.157Z" fill="#273946"/>
<path d="M139.076 34L131.684 20.944H128.516V34H121.796V0.495964H134.372C136.964 0.495964 139.172 0.959965 140.996 1.88796C142.82 2.78396 144.18 4.01596 145.076 5.58397C146.004 7.11996 146.468 8.84796 146.468 10.768C146.468 12.976 145.828 14.976 144.548 16.768C143.268 18.528 141.364 19.744 138.836 20.416L146.852 34H139.076ZM128.516 15.904H134.132C135.956 15.904 137.316 15.472 138.212 14.608C139.108 13.712 139.556 12.48 139.556 10.912C139.556 9.37596 139.108 8.19197 138.212 7.35997C137.316 6.49597 135.956 6.06396 134.132 6.06396H128.516V15.904Z" fill="#273946"/>
<path d="M159.266 5.91996V14.32H170.546V19.648H159.266V28.528H171.986V34H152.546V0.447964H171.986V5.91996H159.266Z" fill="#273946"/>
</svg>
