<svg width="56" height="56" viewBox="0 0 56 56" fill="none" xmlns="http://www.w3.org/2000/svg">
<path d="M4.40721 12.8008L25.4072 24.082C26.1128 24.46 27.0256 24.6392 27.944 24.6392C28.8624 24.6392 29.7752 24.46 30.4808 24.082L40.9808 18.4413L51.4808 12.8008C52.85 12.0644 54.1436 9.19995 51.632 9.19995H27.9454H4.25881C1.74721 9.19995 3.04081 12.0644 4.40721 12.8008ZM52.1164 18.9692L30.4808 30.2448C29.5288 30.7432 28.8624 30.802 27.944 30.802C27.0256 30.802 26.3592 30.7432 25.4072 30.2448C24.4552 29.7464 5.43481 19.7756 3.88081 18.9664C2.78881 18.3952 2.80001 19.0644 2.80001 19.5796V44C2.80001 45.1759 4.38481 46.7999 5.60001 46.7999H28H50.4C51.6152 46.7999 53.2 45.1759 53.2 44V19.5824C53.2 19.0672 53.2112 18.398 52.1164 18.9692Z" fill="#02B3E4"/>
</svg>
