<svg width="56" height="56" viewBox="0 0 56 56" fill="none" xmlns="http://www.w3.org/2000/svg">
<path d="M33.768 16.8001L33.18 16.2401C31.724 14.7281 31.976 14.0281 33.404 12.6001L41.02 4.90009C43.288 2.60409 43.708 1.51209 45.864 3.55609L46.452 4.11609L33.768 16.8001ZM35.252 18.0601L47.572 5.74009C49.532 8.37209 54.124 15.4561 51.856 20.6921C49.812 25.3681 48.804 25.5921 46.256 29.0921C41.076 35.0001 34.552 41.3281 29.456 46.0881C25.928 48.6361 25.788 49.8121 21.056 51.6881C16.016 53.6761 8.73603 49.1961 5.99203 47.3201L18.312 35.0001L21.616 39.5361C22.568 40.8241 24.976 39.3681 26.656 37.6881C29.568 34.7481 35.56 28.7841 37.856 26.2921C39.508 24.6401 40.992 22.2321 39.704 21.2521L35.252 18.0601ZM4.39603 46.2001L3.80803 45.6121C1.90403 43.5401 2.99603 43.0921 5.26403 40.8521L12.936 33.2361C14.364 31.8641 15.036 31.5561 16.492 32.9281L17.052 33.5161L4.39603 46.2001Z" fill="#02B3E4"/>
</svg>
