<svg width="120" height="120" viewBox="0 0 120 120" fill="none" xmlns="http://www.w3.org/2000/svg">
<path d="M120 0H0V120H120V0Z" fill="white"/>
<path d="M11.4 7.19995H7.20001V11.3999H11.4V7.19995Z" fill="#02B3E4"/>
<path d="M15.6 7.19995H11.4V11.3999H15.6V7.19995Z" fill="#02B3E4"/>
<path d="M19.8 7.19995H15.6V11.3999H19.8V7.19995Z" fill="#02B3E4"/>
<path d="M24 7.19995H19.8V11.3999H24V7.19995Z" fill="#02B3E4"/>
<path d="M28.2 7.19995H24V11.3999H28.2V7.19995Z" fill="#02B3E4"/>
<path d="M32.4 7.19995H28.2V11.3999H32.4V7.19995Z" fill="#02B3E4"/>
<path d="M36.6 7.19995H32.4V11.3999H36.6V7.19995Z" fill="#02B3E4"/>
<path d="M45 7.19995H40.8V11.3999H45V7.19995Z" fill="#02B3E4"/>
<path d="M49.2 7.19995H45V11.3999H49.2V7.19995Z" fill="#02B3E4"/>
<path d="M53.4 7.19995H49.2V11.3999H53.4V7.19995Z" fill="#02B3E4"/>
<path d="M57.6 7.19995H53.4V11.3999H57.6V7.19995Z" fill="#02B3E4"/>
<path d="M70.2 7.19995H66V11.3999H70.2V7.19995Z" fill="#02B3E4"/>
<path d="M78.6 7.19995H74.4V11.3999H78.6V7.19995Z" fill="#02B3E4"/>
<path d="M87 7.19995H82.8V11.3999H87V7.19995Z" fill="#02B3E4"/>
<path d="M91.2 7.19995H87V11.3999H91.2V7.19995Z" fill="#02B3E4"/>
<path d="M95.4 7.19995H91.2V11.3999H95.4V7.19995Z" fill="#02B3E4"/>
<path d="M99.5999 7.19995H95.4001V11.3999H99.5999V7.19995Z" fill="#02B3E4"/>
<path d="M103.8 7.19995H99.5999V11.3999H103.8V7.19995Z" fill="#02B3E4"/>
<path d="M108 7.19995H103.8V11.3999H108V7.19995Z" fill="#02B3E4"/>
<path d="M112.2 7.19995H108V11.3999H112.2V7.19995Z" fill="#02B3E4"/>
<path d="M11.4 11.4H7.20001V15.6H11.4V11.4Z" fill="#02B3E4"/>
<path d="M36.6 11.4H32.4V15.6H36.6V11.4Z" fill="#02B3E4"/>
<path d="M57.6 11.4H53.4V15.6H57.6V11.4Z" fill="#02B3E4"/>
<path d="M61.8 11.4H57.6V15.6H61.8V11.4Z" fill="#02B3E4"/>
<path d="M78.6 11.4H74.4V15.6H78.6V11.4Z" fill="#02B3E4"/>
<path d="M87 11.4H82.8V15.6H87V11.4Z" fill="#02B3E4"/>
<path d="M112.2 11.4H108V15.6H112.2V11.4Z" fill="#02B3E4"/>
<path d="M11.4 15.6H7.20001V19.8H11.4V15.6Z" fill="#02B3E4"/>
<path d="M19.8 15.6H15.6V19.8H19.8V15.6Z" fill="#02B3E4"/>
<path d="M24 15.6H19.8V19.8H24V15.6Z" fill="#02B3E4"/>
<path d="M28.2 15.6H24V19.8H28.2V15.6Z" fill="#02B3E4"/>
<path d="M36.6 15.6H32.4V19.8H36.6V15.6Z" fill="#02B3E4"/>
<path d="M49.2 15.6H45V19.8H49.2V15.6Z" fill="#02B3E4"/>
<path d="M57.6 15.6H53.4V19.8H57.6V15.6Z" fill="#02B3E4"/>
<path d="M66 15.6H61.8V19.8H66V15.6Z" fill="#02B3E4"/>
<path d="M74.4 15.6H70.2V19.8H74.4V15.6Z" fill="#02B3E4"/>
<path d="M87 15.6H82.8V19.8H87V15.6Z" fill="#02B3E4"/>
<path d="M95.4 15.6H91.2V19.8H95.4V15.6Z" fill="#02B3E4"/>
<path d="M99.5999 15.6H95.4001V19.8H99.5999V15.6Z" fill="#02B3E4"/>
<path d="M103.8 15.6H99.5999V19.8H103.8V15.6Z" fill="#02B3E4"/>
<path d="M112.2 15.6H108V19.8H112.2V15.6Z" fill="#02B3E4"/>
<path d="M11.4 19.8H7.20001V24H11.4V19.8Z" fill="#02B3E4"/>
<path d="M19.8 19.8H15.6V24H19.8V19.8Z" fill="#02B3E4"/>
<path d="M24 19.8H19.8V24H24V19.8Z" fill="#02B3E4"/>
<path d="M28.2 19.8H24V24H28.2V19.8Z" fill="#02B3E4"/>
<path d="M36.6 19.8H32.4V24H36.6V19.8Z" fill="#02B3E4"/>
<path d="M53.4 19.8H49.2V24H53.4V19.8Z" fill="#02B3E4"/>
<path d="M57.6 19.8H53.4V24H57.6V19.8Z" fill="#02B3E4"/>
<path d="M66 19.8H61.8V24H66V19.8Z" fill="#02B3E4"/>
<path d="M78.6 19.8H74.4V24H78.6V19.8Z" fill="#02B3E4"/>
<path d="M87 19.8H82.8V24H87V19.8Z" fill="#02B3E4"/>
<path d="M95.4 19.8H91.2V24H95.4V19.8Z" fill="#02B3E4"/>
<path d="M99.5999 19.8H95.4001V24H99.5999V19.8Z" fill="#02B3E4"/>
<path d="M103.8 19.8H99.5999V24H103.8V19.8Z" fill="#02B3E4"/>
<path d="M112.2 19.8H108V24H112.2V19.8Z" fill="#02B3E4"/>
<path d="M11.4 24H7.20001V28.2H11.4V24Z" fill="#02B3E4"/>
<path d="M19.8 24H15.6V28.2H19.8V24Z" fill="#02B3E4"/>
<path d="M24 24H19.8V28.2H24V24Z" fill="#02B3E4"/>
<path d="M28.2 24H24V28.2H28.2V24Z" fill="#02B3E4"/>
<path d="M36.6 24H32.4V28.2H36.6V24Z" fill="#02B3E4"/>
<path d="M53.4 24H49.2V28.2H53.4V24Z" fill="#02B3E4"/>
<path d="M57.6 24H53.4V28.2H57.6V24Z" fill="#02B3E4"/>
<path d="M61.8 24H57.6V28.2H61.8V24Z" fill="#02B3E4"/>
<path d="M70.2 24H66V28.2H70.2V24Z" fill="#02B3E4"/>
<path d="M78.6 24H74.4V28.2H78.6V24Z" fill="#02B3E4"/>
<path d="M87 24H82.8V28.2H87V24Z" fill="#02B3E4"/>
<path d="M95.4 24H91.2V28.2H95.4V24Z" fill="#02B3E4"/>
<path d="M99.5999 24H95.4001V28.2H99.5999V24Z" fill="#02B3E4"/>
<path d="M103.8 24H99.5999V28.2H103.8V24Z" fill="#02B3E4"/>
<path d="M112.2 24H108V28.2H112.2V24Z" fill="#02B3E4"/>
<path d="M11.4 28.2H7.20001V32.4H11.4V28.2Z" fill="#02B3E4"/>
<path d="M36.6 28.2H32.4V32.4H36.6V28.2Z" fill="#02B3E4"/>
<path d="M49.2 28.2H45V32.4H49.2V28.2Z" fill="#02B3E4"/>
<path d="M57.6 28.2H53.4V32.4H57.6V28.2Z" fill="#02B3E4"/>
<path d="M66 28.2H61.8V32.4H66V28.2Z" fill="#02B3E4"/>
<path d="M78.6 28.2H74.4V32.4H78.6V28.2Z" fill="#02B3E4"/>
<path d="M87 28.2H82.8V32.4H87V28.2Z" fill="#02B3E4"/>
<path d="M112.2 28.2H108V32.4H112.2V28.2Z" fill="#02B3E4"/>
<path d="M11.4 32.4H7.20001V36.6H11.4V32.4Z" fill="#02B3E4"/>
<path d="M15.6 32.4H11.4V36.6H15.6V32.4Z" fill="#02B3E4"/>
<path d="M19.8 32.4H15.6V36.6H19.8V32.4Z" fill="#02B3E4"/>
<path d="M24 32.4H19.8V36.6H24V32.4Z" fill="#02B3E4"/>
<path d="M28.2 32.4H24V36.6H28.2V32.4Z" fill="#02B3E4"/>
<path d="M32.4 32.4H28.2V36.6H32.4V32.4Z" fill="#02B3E4"/>
<path d="M36.6 32.4H32.4V36.6H36.6V32.4Z" fill="#02B3E4"/>
<path d="M45 32.4H40.8V36.6H45V32.4Z" fill="#02B3E4"/>
<path d="M53.4 32.4H49.2V36.6H53.4V32.4Z" fill="#02B3E4"/>
<path d="M61.8 32.4H57.6V36.6H61.8V32.4Z" fill="#02B3E4"/>
<path d="M70.2 32.4H66V36.6H70.2V32.4Z" fill="#02B3E4"/>
<path d="M78.6 32.4H74.4V36.6H78.6V32.4Z" fill="#02B3E4"/>
<path d="M87 32.4H82.8V36.6H87V32.4Z" fill="#02B3E4"/>
<path d="M91.2 32.4H87V36.6H91.2V32.4Z" fill="#02B3E4"/>
<path d="M95.4 32.4H91.2V36.6H95.4V32.4Z" fill="#02B3E4"/>
<path d="M99.5999 32.4H95.4001V36.6H99.5999V32.4Z" fill="#02B3E4"/>
<path d="M103.8 32.4H99.5999V36.6H103.8V32.4Z" fill="#02B3E4"/>
<path d="M108 32.4H103.8V36.6H108V32.4Z" fill="#02B3E4"/>
<path d="M112.2 32.4H108V36.6H112.2V32.4Z" fill="#02B3E4"/>
<path d="M45 36.6H40.8V40.8H45V36.6Z" fill="#02B3E4"/>
<path d="M49.2 36.6H45V40.8H49.2V36.6Z" fill="#02B3E4"/>
<path d="M61.8 36.6H57.6V40.8H61.8V36.6Z" fill="#02B3E4"/>
<path d="M66 36.6H61.8V40.8H66V36.6Z" fill="#02B3E4"/>
<path d="M74.4 36.6H70.2V40.8H74.4V36.6Z" fill="#02B3E4"/>
<path d="M11.4 40.8H7.20001V45H11.4V40.8Z" fill="#02B3E4"/>
<path d="M15.6 40.8H11.4V45H15.6V40.8Z" fill="#02B3E4"/>
<path d="M24 40.8H19.8V45H24V40.8Z" fill="#02B3E4"/>
<path d="M28.2 40.8H24V45H28.2V40.8Z" fill="#02B3E4"/>
<path d="M36.6 40.8H32.4V45H36.6V40.8Z" fill="#02B3E4"/>
<path d="M49.2 40.8H45V45H49.2V40.8Z" fill="#02B3E4"/>
<path d="M61.8 40.8H57.6V45H61.8V40.8Z" fill="#02B3E4"/>
<path d="M70.2 40.8H66V45H70.2V40.8Z" fill="#02B3E4"/>
<path d="M74.4 40.8H70.2V45H74.4V40.8Z" fill="#02B3E4"/>
<path d="M87 40.8H82.8V45H87V40.8Z" fill="#02B3E4"/>
<path d="M112.2 40.8H108V45H112.2V40.8Z" fill="#02B3E4"/>
<path d="M15.6 45H11.4V49.2H15.6V45Z" fill="#02B3E4"/>
<path d="M28.2 45H24V49.2H28.2V45Z" fill="#02B3E4"/>
<path d="M32.4 45H28.2V49.2H32.4V45Z" fill="#02B3E4"/>
<path d="M40.8 45H36.6V49.2H40.8V45Z" fill="#02B3E4"/>
<path d="M45 45H40.8V49.2H45V45Z" fill="#02B3E4"/>
<path d="M53.4 45H49.2V49.2H53.4V45Z" fill="#02B3E4"/>
<path d="M66 45H61.8V49.2H66V45Z" fill="#02B3E4"/>
<path d="M70.2 45H66V49.2H70.2V45Z" fill="#02B3E4"/>
<path d="M74.4 45H70.2V49.2H74.4V45Z" fill="#02B3E4"/>
<path d="M82.8 45H78.6V49.2H82.8V45Z" fill="#02B3E4"/>
<path d="M91.2 45H87V49.2H91.2V45Z" fill="#02B3E4"/>
<path d="M95.4 45H91.2V49.2H95.4V45Z" fill="#02B3E4"/>
<path d="M99.5999 45H95.4001V49.2H99.5999V45Z" fill="#02B3E4"/>
<path d="M103.8 45H99.5999V49.2H103.8V45Z" fill="#02B3E4"/>
<path d="M108 45H103.8V49.2H108V45Z" fill="#02B3E4"/>
<path d="M15.6 49.2H11.4V53.4H15.6V49.2Z" fill="#02B3E4"/>
<path d="M28.2 49.2H24V53.4H28.2V49.2Z" fill="#02B3E4"/>
<path d="M32.4 49.2H28.2V53.4H32.4V49.2Z" fill="#02B3E4"/>
<path d="M36.6 49.2H32.4V53.4H36.6V49.2Z" fill="#02B3E4"/>
<path d="M40.8 49.2H36.6V53.4H40.8V49.2Z" fill="#02B3E4"/>
<path d="M49.2 49.2H45V53.4H49.2V49.2Z" fill="#02B3E4"/>
<path d="M61.8 49.2H57.6V53.4H61.8V49.2Z" fill="#02B3E4"/>
<path d="M66 49.2H61.8V53.4H66V49.2Z" fill="#02B3E4"/>
<path d="M74.4 49.2H70.2V53.4H74.4V49.2Z" fill="#02B3E4"/>
<path d="M78.6 49.2H74.4V53.4H78.6V49.2Z" fill="#02B3E4"/>
<path d="M87 49.2H82.8V53.4H87V49.2Z" fill="#02B3E4"/>
<path d="M91.2 49.2H87V53.4H91.2V49.2Z" fill="#02B3E4"/>
<path d="M99.5999 49.2H95.4001V53.4H99.5999V49.2Z" fill="#02B3E4"/>
<path d="M112.2 49.2H108V53.4H112.2V49.2Z" fill="#02B3E4"/>
<path d="M15.6 53.4H11.4V57.6H15.6V53.4Z" fill="#02B3E4"/>
<path d="M19.8 53.4H15.6V57.6H19.8V53.4Z" fill="#02B3E4"/>
<path d="M28.2 53.4H24V57.6H28.2V53.4Z" fill="#02B3E4"/>
<path d="M32.4 53.4H28.2V57.6H32.4V53.4Z" fill="#02B3E4"/>
<path d="M70.2 53.4H66V57.6H70.2V53.4Z" fill="#02B3E4"/>
<path d="M78.6 53.4H74.4V57.6H78.6V53.4Z" fill="#02B3E4"/>
<path d="M91.2 53.4H87V57.6H91.2V53.4Z" fill="#02B3E4"/>
<path d="M99.5999 53.4H95.4001V57.6H99.5999V53.4Z" fill="#02B3E4"/>
<path d="M103.8 53.4H99.5999V57.6H103.8V53.4Z" fill="#02B3E4"/>
<path d="M108 53.4H103.8V57.6H108V53.4Z" fill="#02B3E4"/>
<path d="M112.2 53.4H108V57.6H112.2V53.4Z" fill="#02B3E4"/>
<path d="M11.4 57.6H7.20001V61.8H11.4V57.6Z" fill="#02B3E4"/>
<path d="M15.6 57.6H11.4V61.8H15.6V57.6Z" fill="#02B3E4"/>
<path d="M19.8 57.6H15.6V61.8H19.8V57.6Z" fill="#02B3E4"/>
<path d="M24 57.6H19.8V61.8H24V57.6Z" fill="#02B3E4"/>
<path d="M32.4 57.6H28.2V61.8H32.4V57.6Z" fill="#02B3E4"/>
<path d="M36.6 57.6H32.4V61.8H36.6V57.6Z" fill="#02B3E4"/>
<path d="M40.8 57.6H36.6V61.8H40.8V57.6Z" fill="#02B3E4"/>
<path d="M45 57.6H40.8V61.8H45V57.6Z" fill="#02B3E4"/>
<path d="M49.2 57.6H45V61.8H49.2V57.6Z" fill="#02B3E4"/>
<path d="M53.4 57.6H49.2V61.8H53.4V57.6Z" fill="#02B3E4"/>
<path d="M74.4 57.6H70.2V61.8H74.4V57.6Z" fill="#02B3E4"/>
<path d="M78.6 57.6H74.4V61.8H78.6V57.6Z" fill="#02B3E4"/>
<path d="M87 57.6H82.8V61.8H87V57.6Z" fill="#02B3E4"/>
<path d="M112.2 57.6H108V61.8H112.2V57.6Z" fill="#02B3E4"/>
<path d="M11.4 61.8H7.20001V66.0001H11.4V61.8Z" fill="#02B3E4"/>
<path d="M28.2 61.8H24V66.0001H28.2V61.8Z" fill="#02B3E4"/>
<path d="M45 61.8H40.8V66.0001H45V61.8Z" fill="#02B3E4"/>
<path d="M53.4 61.8H49.2V66.0001H53.4V61.8Z" fill="#02B3E4"/>
<path d="M61.8 61.8H57.6V66.0001H61.8V61.8Z" fill="#02B3E4"/>
<path d="M70.2 61.8H66V66.0001H70.2V61.8Z" fill="#02B3E4"/>
<path d="M74.4 61.8H70.2V66.0001H74.4V61.8Z" fill="#02B3E4"/>
<path d="M78.6 61.8H74.4V66.0001H78.6V61.8Z" fill="#02B3E4"/>
<path d="M82.8 61.8H78.6V66.0001H82.8V61.8Z" fill="#02B3E4"/>
<path d="M95.4 61.8H91.2V66.0001H95.4V61.8Z" fill="#02B3E4"/>
<path d="M108 61.8H103.8V66.0001H108V61.8Z" fill="#02B3E4"/>
<path d="M11.4 66H7.20001V70.1999H11.4V66Z" fill="#02B3E4"/>
<path d="M15.6 66H11.4V70.1999H15.6V66Z" fill="#02B3E4"/>
<path d="M19.8 66H15.6V70.1999H19.8V66Z" fill="#02B3E4"/>
<path d="M28.2 66H24V70.1999H28.2V66Z" fill="#02B3E4"/>
<path d="M36.6 66H32.4V70.1999H36.6V66Z" fill="#02B3E4"/>
<path d="M40.8 66H36.6V70.1999H40.8V66Z" fill="#02B3E4"/>
<path d="M45 66H40.8V70.1999H45V66Z" fill="#02B3E4"/>
<path d="M66 66H61.8V70.1999H66V66Z" fill="#02B3E4"/>
<path d="M70.2 66H66V70.1999H70.2V66Z" fill="#02B3E4"/>
<path d="M74.4 66H70.2V70.1999H74.4V66Z" fill="#02B3E4"/>
<path d="M82.8 66H78.6V70.1999H82.8V66Z" fill="#02B3E4"/>
<path d="M87 66H82.8V70.1999H87V66Z" fill="#02B3E4"/>
<path d="M95.4 66H91.2V70.1999H95.4V66Z" fill="#02B3E4"/>
<path d="M99.5999 66H95.4001V70.1999H99.5999V66Z" fill="#02B3E4"/>
<path d="M103.8 66H99.5999V70.1999H103.8V66Z" fill="#02B3E4"/>
<path d="M108 66H103.8V70.1999H108V66Z" fill="#02B3E4"/>
<path d="M112.2 66H108V70.1999H112.2V66Z" fill="#02B3E4"/>
<path d="M11.4 70.2H7.20001V74.4H11.4V70.2Z" fill="#02B3E4"/>
<path d="M24 70.2H19.8V74.4H24V70.2Z" fill="#02B3E4"/>
<path d="M28.2 70.2H24V74.4H28.2V70.2Z" fill="#02B3E4"/>
<path d="M40.8 70.2H36.6V74.4H40.8V70.2Z" fill="#02B3E4"/>
<path d="M45 70.2H40.8V74.4H45V70.2Z" fill="#02B3E4"/>
<path d="M53.4 70.2H49.2V74.4H53.4V70.2Z" fill="#02B3E4"/>
<path d="M61.8 70.2H57.6V74.4H61.8V70.2Z" fill="#02B3E4"/>
<path d="M74.4 70.2H70.2V74.4H74.4V70.2Z" fill="#02B3E4"/>
<path d="M78.6 70.2H74.4V74.4H78.6V70.2Z" fill="#02B3E4"/>
<path d="M82.8 70.2H78.6V74.4H82.8V70.2Z" fill="#02B3E4"/>
<path d="M91.2 70.2H87V74.4H91.2V70.2Z" fill="#02B3E4"/>
<path d="M99.5999 70.2H95.4001V74.4H99.5999V70.2Z" fill="#02B3E4"/>
<path d="M103.8 70.2H99.5999V74.4H103.8V70.2Z" fill="#02B3E4"/>
<path d="M112.2 70.2H108V74.4H112.2V70.2Z" fill="#02B3E4"/>
<path d="M11.4 74.4H7.20001V78.6H11.4V74.4Z" fill="#02B3E4"/>
<path d="M19.8 74.4H15.6V78.6H19.8V74.4Z" fill="#02B3E4"/>
<path d="M28.2 74.4H24V78.6H28.2V74.4Z" fill="#02B3E4"/>
<path d="M36.6 74.4H32.4V78.6H36.6V74.4Z" fill="#02B3E4"/>
<path d="M40.8 74.4H36.6V78.6H40.8V74.4Z" fill="#02B3E4"/>
<path d="M49.2 74.4H45V78.6H49.2V74.4Z" fill="#02B3E4"/>
<path d="M53.4 74.4H49.2V78.6H53.4V74.4Z" fill="#02B3E4"/>
<path d="M57.6 74.4H53.4V78.6H57.6V74.4Z" fill="#02B3E4"/>
<path d="M61.8 74.4H57.6V78.6H61.8V74.4Z" fill="#02B3E4"/>
<path d="M66 74.4H61.8V78.6H66V74.4Z" fill="#02B3E4"/>
<path d="M70.2 74.4H66V78.6H70.2V74.4Z" fill="#02B3E4"/>
<path d="M74.4 74.4H70.2V78.6H74.4V74.4Z" fill="#02B3E4"/>
<path d="M78.6 74.4H74.4V78.6H78.6V74.4Z" fill="#02B3E4"/>
<path d="M82.8 74.4H78.6V78.6H82.8V74.4Z" fill="#02B3E4"/>
<path d="M87 74.4H82.8V78.6H87V74.4Z" fill="#02B3E4"/>
<path d="M91.2 74.4H87V78.6H91.2V74.4Z" fill="#02B3E4"/>
<path d="M95.4 74.4H91.2V78.6H95.4V74.4Z" fill="#02B3E4"/>
<path d="M103.8 74.4H99.5999V78.6H103.8V74.4Z" fill="#02B3E4"/>
<path d="M108 74.4H103.8V78.6H108V74.4Z" fill="#02B3E4"/>
<path d="M45 78.6H40.8V82.8H45V78.6Z" fill="#02B3E4"/>
<path d="M49.2 78.6H45V82.8H49.2V78.6Z" fill="#02B3E4"/>
<path d="M57.6 78.6H53.4V82.8H57.6V78.6Z" fill="#02B3E4"/>
<path d="M66 78.6H61.8V82.8H66V78.6Z" fill="#02B3E4"/>
<path d="M78.6 78.6H74.4V82.8H78.6V78.6Z" fill="#02B3E4"/>
<path d="M95.4 78.6H91.2V82.8H95.4V78.6Z" fill="#02B3E4"/>
<path d="M103.8 78.6H99.5999V82.8H103.8V78.6Z" fill="#02B3E4"/>
<path d="M108 78.6H103.8V82.8H108V78.6Z" fill="#02B3E4"/>
<path d="M11.4 82.8H7.20001V87H11.4V82.8Z" fill="#02B3E4"/>
<path d="M15.6 82.8H11.4V87H15.6V82.8Z" fill="#02B3E4"/>
<path d="M19.8 82.8H15.6V87H19.8V82.8Z" fill="#02B3E4"/>
<path d="M24 82.8H19.8V87H24V82.8Z" fill="#02B3E4"/>
<path d="M28.2 82.8H24V87H28.2V82.8Z" fill="#02B3E4"/>
<path d="M32.4 82.8H28.2V87H32.4V82.8Z" fill="#02B3E4"/>
<path d="M36.6 82.8H32.4V87H36.6V82.8Z" fill="#02B3E4"/>
<path d="M49.2 82.8H45V87H49.2V82.8Z" fill="#02B3E4"/>
<path d="M53.4 82.8H49.2V87H53.4V82.8Z" fill="#02B3E4"/>
<path d="M61.8 82.8H57.6V87H61.8V82.8Z" fill="#02B3E4"/>
<path d="M78.6 82.8H74.4V87H78.6V82.8Z" fill="#02B3E4"/>
<path d="M87 82.8H82.8V87H87V82.8Z" fill="#02B3E4"/>
<path d="M95.4 82.8H91.2V87H95.4V82.8Z" fill="#02B3E4"/>
<path d="M112.2 82.8H108V87H112.2V82.8Z" fill="#02B3E4"/>
<path d="M11.4 87H7.20001V91.2H11.4V87Z" fill="#02B3E4"/>
<path d="M36.6 87H32.4V91.2H36.6V87Z" fill="#02B3E4"/>
<path d="M53.4 87H49.2V91.2H53.4V87Z" fill="#02B3E4"/>
<path d="M57.6 87H53.4V91.2H57.6V87Z" fill="#02B3E4"/>
<path d="M66 87H61.8V91.2H66V87Z" fill="#02B3E4"/>
<path d="M70.2 87H66V91.2H70.2V87Z" fill="#02B3E4"/>
<path d="M74.4 87H70.2V91.2H74.4V87Z" fill="#02B3E4"/>
<path d="M78.6 87H74.4V91.2H78.6V87Z" fill="#02B3E4"/>
<path d="M95.4 87H91.2V91.2H95.4V87Z" fill="#02B3E4"/>
<path d="M112.2 87H108V91.2H112.2V87Z" fill="#02B3E4"/>
<path d="M11.4 91.2001H7.20001V95.4001H11.4V91.2001Z" fill="#02B3E4"/>
<path d="M19.8 91.2001H15.6V95.4001H19.8V91.2001Z" fill="#02B3E4"/>
<path d="M24 91.2001H19.8V95.4001H24V91.2001Z" fill="#02B3E4"/>
<path d="M28.2 91.2001H24V95.4001H28.2V91.2001Z" fill="#02B3E4"/>
<path d="M36.6 91.2001H32.4V95.4001H36.6V91.2001Z" fill="#02B3E4"/>
<path d="M45 91.2001H40.8V95.4001H45V91.2001Z" fill="#02B3E4"/>
<path d="M49.2 91.2001H45V95.4001H49.2V91.2001Z" fill="#02B3E4"/>
<path d="M57.6 91.2001H53.4V95.4001H57.6V91.2001Z" fill="#02B3E4"/>
<path d="M61.8 91.2001H57.6V95.4001H61.8V91.2001Z" fill="#02B3E4"/>
<path d="M70.2 91.2001H66V95.4001H70.2V91.2001Z" fill="#02B3E4"/>
<path d="M74.4 91.2001H70.2V95.4001H74.4V91.2001Z" fill="#02B3E4"/>
<path d="M78.6 91.2001H74.4V95.4001H78.6V91.2001Z" fill="#02B3E4"/>
<path d="M82.8 91.2001H78.6V95.4001H82.8V91.2001Z" fill="#02B3E4"/>
<path d="M87 91.2001H82.8V95.4001H87V91.2001Z" fill="#02B3E4"/>
<path d="M91.2 91.2001H87V95.4001H91.2V91.2001Z" fill="#02B3E4"/>
<path d="M95.4 91.2001H91.2V95.4001H95.4V91.2001Z" fill="#02B3E4"/>
<path d="M11.4 95.4H7.20001V99.5999H11.4V95.4Z" fill="#02B3E4"/>
<path d="M19.8 95.4H15.6V99.5999H19.8V95.4Z" fill="#02B3E4"/>
<path d="M24 95.4H19.8V99.5999H24V95.4Z" fill="#02B3E4"/>
<path d="M28.2 95.4H24V99.5999H28.2V95.4Z" fill="#02B3E4"/>
<path d="M36.6 95.4H32.4V99.5999H36.6V95.4Z" fill="#02B3E4"/>
<path d="M45 95.4H40.8V99.5999H45V95.4Z" fill="#02B3E4"/>
<path d="M53.4 95.4H49.2V99.5999H53.4V95.4Z" fill="#02B3E4"/>
<path d="M61.8 95.4H57.6V99.5999H61.8V95.4Z" fill="#02B3E4"/>
<path d="M70.2 95.4H66V99.5999H70.2V95.4Z" fill="#02B3E4"/>
<path d="M74.4 95.4H70.2V99.5999H74.4V95.4Z" fill="#02B3E4"/>
<path d="M87 95.4H82.8V99.5999H87V95.4Z" fill="#02B3E4"/>
<path d="M108 95.4H103.8V99.5999H108V95.4Z" fill="#02B3E4"/>
<path d="M112.2 95.4H108V99.5999H112.2V95.4Z" fill="#02B3E4"/>
<path d="M11.4 99.6H7.20001V103.8H11.4V99.6Z" fill="#02B3E4"/>
<path d="M19.8 99.6H15.6V103.8H19.8V99.6Z" fill="#02B3E4"/>
<path d="M24 99.6H19.8V103.8H24V99.6Z" fill="#02B3E4"/>
<path d="M28.2 99.6H24V103.8H28.2V99.6Z" fill="#02B3E4"/>
<path d="M36.6 99.6H32.4V103.8H36.6V99.6Z" fill="#02B3E4"/>
<path d="M49.2 99.6H45V103.8H49.2V99.6Z" fill="#02B3E4"/>
<path d="M53.4 99.6H49.2V103.8H53.4V99.6Z" fill="#02B3E4"/>
<path d="M57.6 99.6H53.4V103.8H57.6V99.6Z" fill="#02B3E4"/>
<path d="M61.8 99.6H57.6V103.8H61.8V99.6Z" fill="#02B3E4"/>
<path d="M66 99.6H61.8V103.8H66V99.6Z" fill="#02B3E4"/>
<path d="M70.2 99.6H66V103.8H70.2V99.6Z" fill="#02B3E4"/>
<path d="M82.8 99.6H78.6V103.8H82.8V99.6Z" fill="#02B3E4"/>
<path d="M95.4 99.6H91.2V103.8H95.4V99.6Z" fill="#02B3E4"/>
<path d="M99.5999 99.6H95.4001V103.8H99.5999V99.6Z" fill="#02B3E4"/>
<path d="M103.8 99.6H99.5999V103.8H103.8V99.6Z" fill="#02B3E4"/>
<path d="M108 99.6H103.8V103.8H108V99.6Z" fill="#02B3E4"/>
<path d="M112.2 99.6H108V103.8H112.2V99.6Z" fill="#02B3E4"/>
<path d="M11.4 103.8H7.20001V108H11.4V103.8Z" fill="#02B3E4"/>
<path d="M36.6 103.8H32.4V108H36.6V103.8Z" fill="#02B3E4"/>
<path d="M45 103.8H40.8V108H45V103.8Z" fill="#02B3E4"/>
<path d="M57.6 103.8H53.4V108H57.6V103.8Z" fill="#02B3E4"/>
<path d="M91.2 103.8H87V108H91.2V103.8Z" fill="#02B3E4"/>
<path d="M95.4 103.8H91.2V108H95.4V103.8Z" fill="#02B3E4"/>
<path d="M103.8 103.8H99.5999V108H103.8V103.8Z" fill="#02B3E4"/>
<path d="M108 103.8H103.8V108H108V103.8Z" fill="#02B3E4"/>
<path d="M112.2 103.8H108V108H112.2V103.8Z" fill="#02B3E4"/>
<path d="M11.4 108H7.20001V112.2H11.4V108Z" fill="#02B3E4"/>
<path d="M15.6 108H11.4V112.2H15.6V108Z" fill="#02B3E4"/>
<path d="M19.8 108H15.6V112.2H19.8V108Z" fill="#02B3E4"/>
<path d="M24 108H19.8V112.2H24V108Z" fill="#02B3E4"/>
<path d="M28.2 108H24V112.2H28.2V108Z" fill="#02B3E4"/>
<path d="M32.4 108H28.2V112.2H32.4V108Z" fill="#02B3E4"/>
<path d="M36.6 108H32.4V112.2H36.6V108Z" fill="#02B3E4"/>
<path d="M45 108H40.8V112.2H45V108Z" fill="#02B3E4"/>
<path d="M49.2 108H45V112.2H49.2V108Z" fill="#02B3E4"/>
<path d="M57.6 108H53.4V112.2H57.6V108Z" fill="#02B3E4"/>
<path d="M61.8 108H57.6V112.2H61.8V108Z" fill="#02B3E4"/>
<path d="M78.6 108H74.4V112.2H78.6V108Z" fill="#02B3E4"/>
<path d="M82.8 108H78.6V112.2H82.8V108Z" fill="#02B3E4"/>
<path d="M99.5999 108H95.4001V112.2H99.5999V108Z" fill="#02B3E4"/>
<path d="M112.2 108H108V112.2H112.2V108Z" fill="#02B3E4"/>
</svg>
